<svg width="591" height="500" viewBox="0 0 591 500" fill="none" xmlns="http://www.w3.org/2000/svg">
<rect width="591" height="500" rx="16" fill="#825353"/>
<rect width="591" height="500" rx="16" fill="url(#paint0_linear_114_34)" fill-opacity="0.6"/>
<g filter="url(#filter0_d_114_34)">
<path d="M143.304 228.768C139.656 228.768 136.456 228.672 133.704 228.48C131.016 228.288 128.328 228.064 125.64 227.808V160.992C128.648 160.672 131.592 160.448 134.472 160.32C137.352 160.128 140.648 160.032 144.36 160.032C150.12 160.032 155.08 160.928 159.24 162.72C163.464 164.512 166.92 166.976 169.608 170.112C172.36 173.248 174.376 176.896 175.656 181.056C177 185.152 177.672 189.568 177.672 194.304C177.672 198.976 177 203.392 175.656 207.552C174.312 211.712 172.232 215.392 169.416 218.592C166.664 221.728 163.112 224.224 158.76 226.08C154.472 227.872 149.32 228.768 143.304 228.768ZM143.592 220.8C149.352 220.8 154.056 219.68 157.704 217.44C161.352 215.2 164.04 212.096 165.768 208.128C167.496 204.096 168.36 199.488 168.36 194.304C168.36 189.696 167.496 185.376 165.768 181.344C164.04 177.312 161.384 174.08 157.8 171.648C154.216 169.152 149.64 167.904 144.072 167.904C142.216 167.904 140.52 167.968 138.984 168.096C137.448 168.16 136.04 168.256 134.76 168.384V220.32C136.104 220.512 137.512 220.64 138.984 220.704C140.456 220.768 141.992 220.8 143.592 220.8ZM191.078 228V160.8H231.398V168.672H200.198V189.12H227.078V196.8H200.198V220.128H231.398V228H191.078ZM261.031 229.152C256.36 229.152 252.104 228.544 248.264 227.328C244.424 226.048 241.192 224.384 238.568 222.336L243.176 214.656C245.48 216.576 248.072 218.144 250.952 219.36C253.832 220.576 257.192 221.184 261.031 221.184C265.64 221.184 269.288 220.224 271.976 218.304C274.664 216.384 276.008 213.792 276.008 210.528C276.008 208.672 275.624 207.04 274.856 205.632C274.088 204.16 272.584 202.752 270.344 201.408C268.168 200 264.936 198.496 260.648 196.896C256.04 195.104 252.36 193.312 249.608 191.52C246.856 189.664 244.872 187.584 243.656 185.28C242.504 182.912 241.928 180.128 241.928 176.928C241.928 173.728 242.792 170.848 244.52 168.288C246.312 165.664 248.904 163.584 252.296 162.048C255.752 160.448 259.912 159.648 264.776 159.648C268.744 159.648 272.296 160.064 275.432 160.896C278.632 161.664 281.736 162.784 284.744 164.256L281.384 172.032C279.208 170.752 276.648 169.696 273.704 168.864C270.824 167.968 267.784 167.52 264.584 167.52C260.36 167.52 257.032 168.352 254.6 170.016C252.168 171.68 250.952 173.824 250.952 176.448C250.952 178.112 251.304 179.584 252.008 180.864C252.712 182.144 254.088 183.392 256.136 184.608C258.248 185.824 261.384 187.2 265.544 188.736C270.536 190.592 274.472 192.544 277.352 194.592C280.296 196.64 282.376 198.88 283.592 201.312C284.808 203.68 285.416 206.4 285.416 209.472C285.416 213.632 284.36 217.184 282.248 220.128C280.2 223.072 277.32 225.312 273.608 226.848C269.96 228.384 265.768 229.152 261.031 229.152ZM298.89 228V160.8H308.01V228H298.89ZM348.272 229.152C343.088 229.152 338.48 227.808 334.448 225.12C330.416 222.432 327.248 218.624 324.944 213.696C322.64 208.704 321.488 202.848 321.488 196.128C321.488 188.96 322.704 182.656 325.136 177.216C327.568 171.712 331.056 167.424 335.6 164.352C340.208 161.216 345.744 159.648 352.208 159.648C356.368 159.648 360.08 160.16 363.344 161.184C366.608 162.208 369.68 163.52 372.56 165.12L369.2 172.704C366.512 171.232 363.76 170.016 360.944 169.056C358.192 168.096 355.12 167.616 351.728 167.616C347.696 167.616 344.112 168.704 340.976 170.88C337.84 172.992 335.344 176.128 333.488 180.288C331.696 184.448 330.799 189.536 330.799 195.552C330.799 200.928 331.632 205.536 333.296 209.376C334.96 213.152 337.264 216.064 340.208 218.112C343.152 220.16 346.544 221.184 350.384 221.184C353.968 221.184 357.136 220.448 359.888 218.976C362.704 217.44 364.912 215.872 366.512 214.272V199.584H352.592V192.384H375.152V228H367.088V221.28C364.848 223.264 362.128 225.088 358.928 226.752C355.728 228.352 352.176 229.152 348.272 229.152ZM390.015 228V160.8H402.111L431.775 216.672V160.8H440.415V228H428.511L398.655 172.512V228H390.015ZM142.344 342.152C137.672 342.152 133.416 341.544 129.576 340.328C125.736 339.048 122.504 337.384 119.88 335.336L124.488 327.656C126.792 329.576 129.384 331.144 132.264 332.36C135.144 333.576 138.504 334.184 142.344 334.184C146.952 334.184 150.6 333.224 153.288 331.304C155.976 329.384 157.32 326.792 157.32 323.528C157.32 321.672 156.936 320.04 156.168 318.632C155.4 317.16 153.896 315.752 151.656 314.408C149.48 313 146.248 311.496 141.96 309.896C137.352 308.104 133.672 306.312 130.92 304.52C128.168 302.664 126.184 300.584 124.968 298.28C123.816 295.912 123.24 293.128 123.24 289.928C123.24 286.728 124.104 283.848 125.832 281.288C127.624 278.664 130.216 276.584 133.608 275.048C137.064 273.448 141.224 272.648 146.088 272.648C150.056 272.648 153.608 273.064 156.744 273.896C159.944 274.664 163.048 275.784 166.056 277.256L162.696 285.032C160.52 283.752 157.96 282.696 155.016 281.864C152.136 280.968 149.096 280.52 145.896 280.52C141.672 280.52 138.344 281.352 135.912 283.016C133.48 284.68 132.264 286.824 132.264 289.448C132.264 291.112 132.616 292.584 133.32 293.864C134.024 295.144 135.4 296.392 137.448 297.608C139.56 298.824 142.696 300.2 146.856 301.736C151.848 303.592 155.784 305.544 158.664 307.592C161.608 309.64 163.688 311.88 164.904 314.312C166.12 316.68 166.728 319.4 166.728 322.472C166.728 326.632 165.672 330.184 163.56 333.128C161.512 336.072 158.632 338.312 154.92 339.848C151.272 341.384 147.08 342.152 142.344 342.152ZM194.913 341V315.464L171.585 277.544L179.265 272.936L199.809 307.016L219.969 273.32L227.169 277.544L204.033 315.464V341H194.913ZM251 342.152C246.328 342.152 242.072 341.544 238.232 340.328C234.392 339.048 231.16 337.384 228.536 335.336L233.144 327.656C235.448 329.576 238.04 331.144 240.92 332.36C243.8 333.576 247.16 334.184 251 334.184C255.608 334.184 259.256 333.224 261.944 331.304C264.632 329.384 265.976 326.792 265.976 323.528C265.976 321.672 265.592 320.04 264.824 318.632C264.056 317.16 262.552 315.752 260.312 314.408C258.136 313 254.904 311.496 250.616 309.896C246.008 308.104 242.328 306.312 239.576 304.52C236.824 302.664 234.84 300.584 233.624 298.28C232.472 295.912 231.896 293.128 231.896 289.928C231.896 286.728 232.76 283.848 234.488 281.288C236.28 278.664 238.872 276.584 242.264 275.048C245.72 273.448 249.88 272.648 254.744 272.648C258.712 272.648 262.264 273.064 265.4 273.896C268.6 274.664 271.704 275.784 274.712 277.256L271.352 285.032C269.176 283.752 266.616 282.696 263.672 281.864C260.792 280.968 257.752 280.52 254.552 280.52C250.328 280.52 247 281.352 244.568 283.016C242.136 284.68 240.92 286.824 240.92 289.448C240.92 291.112 241.272 292.584 241.976 293.864C242.68 295.144 244.056 296.392 246.104 297.608C248.216 298.824 251.352 300.2 255.512 301.736C260.504 303.592 264.44 305.544 267.32 307.592C270.264 309.64 272.344 311.88 273.56 314.312C274.776 316.68 275.384 319.4 275.384 322.472C275.384 326.632 274.328 330.184 272.216 333.128C270.168 336.072 267.288 338.312 263.576 339.848C259.928 341.384 255.736 342.152 251 342.152ZM301.819 341V281.864H281.179V273.8H331.579V281.864H310.939V341H301.819ZM341.171 341V273.8H381.491V281.672H350.291V302.12H377.171V309.8H350.291V333.128H381.491V341H341.171ZM394.421 341V273.8H407.189L425.813 316.328L444.149 273.8H457.205V341H448.085V285.416L430.133 325.832H421.109L403.061 285.416V341H394.421Z" fill="#FF8BD8"/>
</g>
<defs>
<filter id="filter0_d_114_34" x="119.88" y="159.648" width="345.325" height="192.504" filterUnits="userSpaceOnUse" color-interpolation-filters="sRGB">
<feFlood flood-opacity="0" result="BackgroundImageFix"/>
<feColorMatrix in="SourceAlpha" type="matrix" values="0 0 0 0 0 0 0 0 0 0 0 0 0 0 0 0 0 0 127 0" result="hardAlpha"/>
<feOffset dx="4" dy="6"/>
<feGaussianBlur stdDeviation="2"/>
<feComposite in2="hardAlpha" operator="out"/>
<feColorMatrix type="matrix" values="0 0 0 0 0 0 0 0 0 0 0 0 0 0 0 0 0 0 0.25 0"/>
<feBlend mode="normal" in2="BackgroundImageFix" result="effect1_dropShadow_114_34"/>
<feBlend mode="normal" in="SourceGraphic" in2="effect1_dropShadow_114_34" result="shape"/>
</filter>
<linearGradient id="paint0_linear_114_34" x1="295.5" y1="0" x2="295.5" y2="500" gradientUnits="userSpaceOnUse">
<stop stop-color="#ABC1C0"/>
<stop offset="1" stop-opacity="0"/>
</linearGradient>
</defs>
</svg>
